<svg width="48" height="48" viewBox="0 0 48 48" fill="none" xmlns="http://www.w3.org/2000/svg">
<path d="M15.9932 13L16.0034 19" stroke="#152C5B" stroke-width="3" stroke-linecap="round"/>
<path d="M30.9932 13L31.0034 19" stroke="#152C5B" stroke-width="3" stroke-linecap="round"/>
<mask id="path-3-inside-1" fill="white">
<path d="M16 14C13.7909 14 12 12.2091 12 10L12 5C12 4.44772 12.4477 4 13 4L19 4C19.5523 4 20 4.44772 20 5L20 10C20 12.2091 18.2091 14 16 14Z"/>
</mask>
<path d="M16 14C13.7909 14 12 12.2091 12 10L12 5C12 4.44772 12.4477 4 13 4L19 4C19.5523 4 20 4.44772 20 5L20 10C20 12.2091 18.2091 14 16 14Z" stroke="#FF498B" stroke-width="6" mask="url(#path-3-inside-1)"/>
<mask id="path-4-inside-2" fill="white">
<path d="M31 14C28.7909 14 27 12.2091 27 10L27 5C27 4.44772 27.4477 4 28 4L34 4C34.5523 4 35 4.44772 35 5L35 10C35 12.2091 33.2091 14 31 14Z"/>
</mask>
<path d="M31 14C28.7909 14 27 12.2091 27 10L27 5C27 4.44772 27.4477 4 28 4L34 4C34.5523 4 35 4.44772 35 5L35 10C35 12.2091 33.2091 14 31 14Z" stroke="#FF498B" stroke-width="6" mask="url(#path-4-inside-2)"/>
<path d="M6.23607 20.882C6.65955 20.035 7.52521 19.5 8.47214 19.5H39.5279C40.4748 19.5 41.3405 20.035 41.7639 20.882L43.7639 24.882C44.5951 26.5442 43.3863 28.5 41.5279 28.5H6.47214C4.61368 28.5 3.40494 26.5442 4.23607 24.882L6.23607 20.882Z" stroke="#152C5B" stroke-width="3"/>
<mask id="path-6-inside-3" fill="white">
<path d="M9 46C11.2091 46 13 44.2091 13 42L13 28C13 27.4477 12.5523 27 12 27L6 27C5.44772 27 5 27.4477 5 28L5 42C5 44.2091 6.79086 46 9 46Z"/>
</mask>
<path d="M9 46C11.2091 46 13 44.2091 13 42L13 28C13 27.4477 12.5523 27 12 27L6 27C5.44772 27 5 27.4477 5 28L5 42C5 44.2091 6.79086 46 9 46Z" stroke="#152C5B" stroke-width="6" mask="url(#path-6-inside-3)"/>
<mask id="path-7-inside-4" fill="white">
<path d="M39 46C36.7909 46 35 44.2091 35 42L35 28C35 27.4477 35.4477 27 36 27L42 27C42.5523 27 43 27.4477 43 28L43 42C43 44.2091 41.2091 46 39 46Z"/>
</mask>
<path d="M39 46C36.7909 46 35 44.2091 35 42L35 28C35 27.4477 35.4477 27 36 27L42 27C42.5523 27 43 27.4477 43 28L43 42C43 44.2091 41.2091 46 39 46Z" stroke="#152C5B" stroke-width="6" mask="url(#path-7-inside-4)"/>
</svg>
